<svg version="1.0" width="2048pt" height="2048pt" viewBox="0 0 2048 2048" xmlns="http://www.w3.org/2000/svg">
  <g transform="matrix(.1 0 0 -.1 0 2048)">
    <path style="stroke-width:.75" d="M123 123v1802h1802V123zm1432 618.5c27.825 0 50.5 22.667 50.5 50.5 0 27.83-22.671 50.5-50.5 50.5-22.305 0-41.968-14.633-48.373-36H1431.5l-180.7 431.2h-98.5L1023.6 933h-48.1L868 1041.8l143.8 195.9H898.3l-99.4-133.9-45.9 43.5v90.4h-78.5l-90.3 86.3H455.373c-6.404 21.367-26.068 36-48.373 36-27.89 0-50.5-22.61-50.5-50.5s22.61-50.5 50.5-50.5c22.374 0 42.082 14.722 48.427 36.178 7.31-.027 117.473.022 117.473.022l84.1-78.4V777.5h96v257.3l133.5-130.3h224l92.1 224.8 92.7-224.8h64.1l54.212-127h93.015c6.404-21.367 26.068-36 48.373-36zM455.428 1295.2l-.054 28.8z" transform="matrix(10 0 0 -10 0 20480)"/>
    <circle style="fill:#000;stroke-width:.75" cx="15550" cy="-12560" transform="scale(1 -1)" r="240"/>
    <circle style="fill:#000;stroke-width:7.5" cx="4070" cy="-7385" transform="scale(1 -1)" r="240"/>
  </g>
</svg>